HIERARCHY
ROOT hip
{
  OFFSET 0 0 0
  CHANNELS 6 Xposition Yposition Zposition Zrotation Yrotation Xrotation
  JOINT abdomen
  {
    OFFSET 0 20.6881 -0.73152
    CHANNELS 3 Zrotation Xrotation Yrotation
    JOINT chest
    {
      OFFSET 0 11.7043 -0.48768
      CHANNELS 3 Zrotation Xrotation Yrotation
      JOINT neck
      {
        OFFSET 0 22.1894 -2.19456
        CHANNELS 3 Zrotation Xrotation Yrotation
        JOINT head
        {
          OFFSET -0.24384 7.07133 1.2192
          CHANNELS 3 Zrotation Xrotation Yrotation
          JOINT leftEye
          {
            OFFSET 4.14528 8.04674 8.04672
            CHANNELS 3 Zrotation Xrotation Yrotation
            End Site
            {
              OFFSET 1 0 0
            }
          }
          JOINT rightEye
          {
            OFFSET -3.6576 8.04674 8.04672
            CHANNELS 3 Zrotation Xrotation Yrotation
            End Site
            {
              OFFSET 1 0 0
            }
          }
        }
      }
      JOINT rCollar
      {
        OFFSET -2.68224 19.2634 -4.8768
        CHANNELS 3 Zrotation Xrotation Yrotation
        JOINT rShldr
        {
          OFFSET -8.77824 -1.95073 1.46304
          CHANNELS 3 Zrotation Xrotation Yrotation
          JOINT rForeArm
          {
            OFFSET -28.1742 -1.7115 0.48768
            CHANNELS 3 Zrotation Xrotation Yrotation
            JOINT rHand
            {
              OFFSET -22.5879 0.773209 7.07136
              CHANNELS 3 Zrotation Xrotation Yrotation
              JOINT rThumb1
              {
                OFFSET -1.2192 -0.487915 3.41376
                CHANNELS 3 Zrotation Xrotation Yrotation
                JOINT rThumb2
                {
                  OFFSET -3.37035 -0.52449 3.41376
                  CHANNELS 3 Zrotation Xrotation Yrotation
                  End Site
                  {
                    OFFSET -1.78271 -1.18214 1.43049
                  }
                }
              }
              JOINT rIndex1
              {
                OFFSET -7.75947 0.938293 5.60832
                CHANNELS 3 Zrotation Xrotation Yrotation
                JOINT rIndex2
                {
                  OFFSET -2.54057 -0.884171 1.56538
                  CHANNELS 3 Zrotation Xrotation Yrotation
                  End Site
                  {
                    OFFSET -1.62519 -0.234802 1.16502
                  }
                }
              }
              JOINT rMid1
              {
                OFFSET -8.24714 1.18213 3.41376
                CHANNELS 3 Zrotation Xrotation Yrotation
                JOINT rMid2
                {
                  OFFSET -3.10165 -0.590103 1.0647
                  CHANNELS 3 Zrotation Xrotation Yrotation
                  End Site
                  {
                    OFFSET -2.48547 -0.328903 0.83742
                  }
                }
              }
              JOINT rRing1
              {
                OFFSET -8.82822 0.546677 1.51678
                CHANNELS 3 Zrotation Xrotation Yrotation
                JOINT rRing2
                {
                  OFFSET -2.60934 -0.819778 -0.0198488
                  CHANNELS 3 Zrotation Xrotation Yrotation
                  End Site
                  {
                    OFFSET -2.33842 -0.294052 0.168128
                  }
                }
              }
              JOINT rPinky1
              {
                OFFSET -8.27202 -0.0477905 -0.4584
                CHANNELS 3 Zrotation Xrotation Yrotation
                JOINT rPinky2
                {
                  OFFSET -1.82734 -0.647385 -0.700984
                  CHANNELS 3 Zrotation Xrotation Yrotation
                  End Site
                  {
                    OFFSET -1.69225 -0.51767 -0.607171
                  }
                }
              }
            }
          }
        }
      }
      JOINT lCollar
      {
        OFFSET 2.68224 19.2634 -4.8768
        CHANNELS 3 Zrotation Xrotation Yrotation
        JOINT lShldr
        {
          OFFSET 8.77824 -1.95073 1.46304
          CHANNELS 3 Zrotation Xrotation Yrotation
          JOINT lForeArm
          {
            OFFSET 28.1742 -1.7115 0.48768
            CHANNELS 3 Zrotation Xrotation Yrotation
            JOINT lHand
            {
              OFFSET 22.5879 0.773209 7.07136
              CHANNELS 3 Zrotation Xrotation Yrotation
              JOINT lThumb1
              {
                OFFSET 1.2192 -0.487915 3.41376
                CHANNELS 3 Zrotation Xrotation Yrotation
                JOINT lThumb2
                {
                  OFFSET 3.37035 -0.52449 3.41376
                  CHANNELS 3 Zrotation Xrotation Yrotation
                  End Site
                  {
                    OFFSET 1.78271 -1.18214 1.43049
                  }
                }
              }
              JOINT lIndex1
              {
                OFFSET 7.75947 0.938293 5.60832
                CHANNELS 3 Zrotation Xrotation Yrotation
                JOINT lIndex2
                {
                  OFFSET 2.54057 -0.884171 1.56538
                  CHANNELS 3 Zrotation Xrotation Yrotation
                  End Site
                  {
                    OFFSET 1.62519 -0.234802 1.16502
                  }
                }
              }
              JOINT lMid1
              {
                OFFSET 8.24714 1.18213 3.41376
                CHANNELS 3 Zrotation Xrotation Yrotation
                JOINT lMid2
                {
                  OFFSET 3.10165 -0.590103 1.0647
                  CHANNELS 3 Zrotation Xrotation Yrotation
                  End Site
                  {
                    OFFSET 2.48547 -0.328903 0.83742
                  }
                }
              }
              JOINT lRing1
              {
                OFFSET 8.82822 0.546677 1.51678
                CHANNELS 3 Zrotation Xrotation Yrotation
                JOINT lRing2
                {
                  OFFSET 2.60934 -0.819778 -0.0198488
                  CHANNELS 3 Zrotation Xrotation Yrotation
                  End Site
                  {
                    OFFSET 2.33842 -0.294052 0.168128
                  }
                }
              }
              JOINT lPinky1
              {
                OFFSET 8.27202 -0.0477905 -0.4584
                CHANNELS 3 Zrotation Xrotation Yrotation
                JOINT lPinky2
                {
                  OFFSET 1.82734 -0.647385 -0.700984
                  CHANNELS 3 Zrotation Xrotation Yrotation
                  End Site
                  {
                    OFFSET 1.69225 -0.51767 -0.607171
                  }
                }
              }
            }
          }
        }
      }
    }
  }
  JOINT rButtock
  {
    OFFSET -8.77824 4.35084 1.2192
    CHANNELS 3 Zrotation Xrotation Yrotation
    JOINT rThigh
    {
      OFFSET 0 -1.70687 -2.19456
      CHANNELS 3 Zrotation Xrotation Yrotation
      JOINT rShin
      {
        OFFSET 0 -36.8199 0.73152
        CHANNELS 3 Zrotation Xrotation Yrotation
        JOINT rFoot
        {
          OFFSET 0.73152 -45.1104 -5.12064
          CHANNELS 3 Zrotation Xrotation Yrotation
          End Site
          {
            OFFSET -1.1221 -3.69964 12.103
          }
        }
      }
    }
  }
  JOINT lButtock
  {
    OFFSET 8.77824 4.35084 1.2192
    CHANNELS 3 Zrotation Xrotation Yrotation
    JOINT lThigh
    {
      OFFSET 0 -1.70687 -2.19456
      CHANNELS 3 Zrotation Xrotation Yrotation
      JOINT lShin
      {
        OFFSET 0 -36.8199 0.73152
        CHANNELS 3 Zrotation Xrotation Yrotation
        JOINT lFoot
        {
          OFFSET -0.73152 -45.1104 -5.12064
          CHANNELS 3 Zrotation Xrotation Yrotation
          End Site
          {
            OFFSET 1.1221 -3.69964 12.103
          }
        }
      }
    }
  }
}
MOTION
Frames:	6
Frame Time:	0.00833333
4.65324 82.4855 55.6356 0.0 0.0 0.0 -4.35895 0.00629234 -0.117456 -1.20159 0.0324761 -0.207681 -3.19254e-14 7.95139e-16 9.44227e-16 -9.55254e-14 3.18055e-15 2.92897e-15 -0.0 0.0 0.0 -0.0 0.0 0.0 -1.57056e-14 3.53309e-17 6.4605e-16 -3.2933e-13 8.94531e-16 9.93923e-15 -5.70423e-12 1.74891e-12 2.22639e-13 -6.56376e-11 -1.55469e-12 1.88607e-12 -1.54781e-10 4.19934e-13 4.6118e-12 -2.67319e-10 7.25166e-13 7.9657e-12 -1.54775e-10 4.25002e-13 4.5959e-12 7.73091 5.47488 0.417314 -1.54782e-10 4.20032e-13 4.61499e-12 2.90554 0.965183 0.102902 -1.54771e-10 4.2043e-13 4.60862e-12 10.2786 0.731801 0.0259123 -1.54779e-10 4.18243e-13 4.61499e-12 2.22167 -0.733487 -0.20892 -1.59022e-14 3.80486e-17 3.97569e-16 -3.31625e-13 1.06847e-15 8.15017e-15 -5.76346e-12 -1.67039e-12 2.63986e-13 -6.56114e-11 1.87315e-12 1.85426e-12 -1.54844e-10 4.3508e-13 4.60544e-12 -2.67406e-10 7.50611e-13 7.97365e-12 -1.54849e-10 4.36929e-13 4.61499e-12 -7.73091 5.47488 -0.417314 -1.54843e-10 4.34941e-13 4.60544e-12 -2.90554 0.965183 -0.102902 -1.54854e-10 4.35637e-13 4.6126e-12 -10.2786 0.731801 -0.0259123 -1.5484e-10 4.34543e-13 4.60226e-12 -2.22167 -0.733487 0.20892 -2.03217e-16 0.0 -3.88251e-19 -2.88804 -1.94435 0.0304135 -0.00797353 -2.07874 -0.0651008 -0.422418 4.00217 0.127139 2.03217e-16 0.0 3.88251e-19 -3.72535 -11.2507 0.483796 -0.0143134 14.7726 -0.388799 0.544805 -3.54243 0.0125121
2.16578 82.1631 53.3227 -9.6526 -4.4139 10.5329 -2.05148 -3.00387 0.930454 -1.76159 -2.14565 -0.0232156 -0.64965 1.06078 -0.872583 4.10481 3.13836 -2.02788 -0.0 0.0 0.0 -0.0 0.0 0.0 3.29667e-14 7.39494e-14 -9.8775e-15 23.5231 -7.73764 -2.76092 -3.96591 -1.7542 6.24535 0.338536 12.9699 1.65868 1.20162e-10 -1.3314e-11 -5.70442e-10 1.84987e-10 -7.63333e-12 -9.90337e-10 1.20166e-10 -1.3308e-11 -5.70458e-10 7.73091 5.47488 0.417314 1.2016e-10 -1.33122e-11 -5.70442e-10 2.90554 0.965183 0.102902 1.20172e-10 -1.33118e-11 -5.70447e-10 10.2786 0.731801 0.0259123 1.20165e-10 -1.33137e-11 -5.70441e-10 2.22167 -0.733487 -0.20892 3.28029e-14 7.39499e-14 -1.01112e-14 -23.2209 -6.57432 2.46579 3.3783 -1.39876 -5.41527 -0.0872408 6.56205 -0.900561 -2.96532e-10 -3.29611e-11 5.59141e-10 -5.01225e-10 -5.12045e-11 9.68812e-10 -2.96541e-10 -3.29604e-11 5.59151e-10 -7.73091 5.47488 -0.417314 -2.96532e-10 -3.29616e-11 5.5914e-10 -2.90554 0.965183 -0.102902 -2.96541e-10 -3.29604e-11 5.59147e-10 -10.2786 0.731801 -0.0259123 -2.96529e-10 -3.29607e-11 5.59137e-10 -2.22167 -0.733487 0.20892 -2.03217e-16 0.0 -3.88251e-19 -1.19788 -3.40385 7.01535 0.00494844 -1.83357 0.044788 -0.848381 1.53328 -6.42385 2.03217e-16 0.0 3.88251e-19 -3.23745 -10.3395 -12.5475 -0.00183824 14.1487 -0.189318 1.91155 -11.436 15.5175
2.12783 82.1747 53.3388 -9.8411 -4.3407 10.4601 0.516611 -6.15319 2.05863 -2.35945 -4.45782 0.174046 -1.25035 2.16473 -1.79904 8.64553 6.44158 -4.20194 -0.0 0.0 0.0 -0.0 0.0 0.0 8.64359e-14 1.57653e-13 -2.27205e-14 47.5829 -15.8606 -5.84916 -7.75283 -3.54426 12.8782 -0.207803 26.6385 3.71996 4.42348e-10 -3.60916e-11 -1.21513e-09 7.16079e-10 -2.92802e-11 -2.11014e-09 4.42349e-10 -3.60845e-11 -1.21515e-09 7.73091 5.47488 0.417314 4.42345e-10 -3.60878e-11 -1.21513e-09 2.90554 0.965183 0.102902 4.42356e-10 -3.60874e-11 -1.21513e-09 10.2786 0.731801 0.0259123 4.42352e-10 -3.6089e-11 -1.21513e-09 2.22167 -0.733487 -0.20892 8.63075e-14 1.57651e-13 -2.29379e-14 -47.1093 -13.4878 5.17325 6.66007 -2.83365 -11.1448 0.0507903 13.5136 -1.89552 -4.51474e-10 -6.76081e-11 1.19812e-09 -7.56328e-10 -1.04456e-10 2.07575e-09 -4.51487e-10 -6.76087e-11 1.19813e-09 -7.73091 5.47488 -0.417314 -4.51474e-10 -6.7609e-11 1.19812e-09 -2.90554 0.965183 -0.102902 -4.5148e-10 -6.76074e-11 1.19813e-09 -10.2786 0.731801 -0.0259123 -4.51471e-10 -6.76068e-11 1.19812e-09 -2.22167 -0.733487 0.20892 -2.03217e-16 0.0 -3.88251e-19 0.98811 -4.83166 14.4194 0.0176491 -1.57212 0.160812 -1.9061 -1.02556 -13.3366 2.03217e-16 0.0 3.88251e-19 -2.25489 -8.87016 -26.2084 0.0160072 13.4859 0.0196112 7.92901 -17.5299 32.9562
2.10363 82.1804 53.3376 -9.9685 -4.271 10.4644 2.89703 -9.01273 3.06026 -2.83934 -6.50179 0.348002 -1.85193 3.17939 -2.62134 12.9872 9.3676 -6.15693 -0.0 0.0 0.0 -0.0 0.0 0.0 1.30311e-13 2.21778e-13 -3.09246e-14 68.1775 -22.9878 -8.92081 -10.7695 -5.01299 18.8018 -1.77278 38.7599 6.22332 6.70049e-10 -4.0782e-11 -1.72055e-09 1.0896e-09 -2.43503e-11 -2.98694e-09 6.70048e-10 -4.0774e-11 -1.72057e-09 7.73091 5.47488 0.417314 6.70045e-10 -4.07766e-11 -1.72056e-09 2.90554 0.965183 0.102902 6.70056e-10 -4.07761e-11 -1.72056e-09 10.2786 0.731801 0.0259123 6.70054e-10 -4.07775e-11 -1.72055e-09 2.22167 -0.733487 -0.20892 1.30213e-13 2.21774e-13 -3.11288e-14 -67.882 -19.5723 7.80207 9.35182 -4.04661 -16.2827 0.389465 19.6661 -2.85037 -5.79909e-10 -9.97534e-11 1.66821e-09 -9.68864e-10 -1.55115e-10 2.89049e-09 -5.79925e-10 -9.9755e-11 1.66822e-09 -7.73091 5.47488 -0.417314 -5.79909e-10 -9.97546e-11 1.66821e-09 -2.90554 0.965183 -0.102902 -5.79913e-10 -9.97526e-11 1.66822e-09 -10.2786 0.731801 -0.0259123 -5.79907e-10 -9.97513e-11 1.6682e-09 -2.22167 -0.733487 0.20892 -2.03217e-16 0.0 -3.88251e-19 3.225 -5.9751 21.0678 0.0279703 -1.3432 0.264484 -3.36482 -3.18131 -19.5496 2.03217e-16 0.0 3.88251e-19 -0.937472 -7.28649 -38.3356 0.0364813 12.9006 0.20638 16.3775 -19.4997 49.2614
2.09581 82.1816 53.3385 -10.0124 -4.2339 10.4717 4.57126 -11.1593 3.71365 -3.05511 -7.8754 0.46117 -2.52231 3.97359 -3.18005 16.3492 11.3968 -7.49378 -0.0 0.0 0.0 -0.0 0.0 0.0 1.50203e-13 2.36953e-13 -2.75317e-14 81.8496 -27.8383 -11.3452 -12.6568 -5.92001 22.8886 -3.8082 47.1485 8.71369 6.61538e-10 -2.54441e-13 -1.87781e-09 1.06919e-09 4.70213e-11 -3.25626e-09 6.61536e-10 -2.46095e-13 -1.87783e-09 7.73091 5.47488 0.417314 6.61534e-10 -2.48083e-13 -1.87782e-09 2.90554 0.965183 0.102902 6.61545e-10 -2.47686e-13 -1.87782e-09 10.2786 0.731801 0.0259123 6.61544e-10 -2.48878e-13 -1.87781e-09 2.22167 -0.733487 -0.20892 1.50121e-13 2.36949e-13 -2.77305e-14 -82.1431 -23.725 9.85171 11.1135 -4.84605 -19.9069 0.751855 23.84 -3.56055 -6.42078e-10 -1.25645e-10 1.71606e-09 -1.07498e-09 -1.99294e-10 2.97475e-09 -6.42095e-10 -1.25647e-10 1.71607e-09 -7.73091 5.47488 -0.417314 -6.42078e-10 -1.25646e-10 1.71606e-09 -2.90554 0.965183 -0.102902 -6.42081e-10 -1.25644e-10 1.71607e-09 -10.2786 0.731801 -0.0259123 -6.42076e-10 -1.25642e-10 1.71606e-09 -2.22167 -0.733487 0.20892 -2.03217e-16 0.0 -3.88251e-19 4.88068 -6.71135 25.76 0.0343711 -1.19562 0.33733 -4.66784 -4.57876 -23.9607 2.03217e-16 0.0 3.88251e-19 0.168103 -6.13097 -46.8381 0.0540986 12.5094 0.339979 23.1489 -18.4253 60.4634
2.11044 82.1923 53.3548 -9.8343 -4.206 10.664 5.13839 -12.3672 3.82223 -2.86834 -8.29339 0.480448 -3.43885 4.50136 -3.35666 18.2388 12.1731 -7.88201 -0.0 0.0 0.0 -0.0 0.0 0.0 1.32831e-13 1.67202e-13 1.16825e-15 86.69 -29.6385 -12.3814 -13.2839 -6.19706 24.3417 -4.93758 50.4607 9.9834 2.12077e-10 1.34305e-10 -1.43937e-09 3.11457e-10 2.59384e-10 -2.48466e-09 2.12074e-10 1.34313e-10 -1.43938e-09 7.73091 5.47488 0.417314 2.12072e-10 1.34312e-10 -1.43937e-09 2.90554 0.965183 0.102902 2.12082e-10 1.34312e-10 -1.43937e-09 10.2786 0.731801 0.0259123 2.1208e-10 1.34311e-10 -1.43937e-09 2.22167 -0.733487 -0.20892 1.32745e-13 1.67198e-13 9.60534e-16 -87.9847 -25.2942 10.8193 11.8121 -5.16869 -21.403 0.905326 25.225 -3.81254 -6.17283e-10 -1.75578e-10 1.00465e-09 -1.0452e-09 -2.92861e-10 1.74615e-09 -6.17299e-10 -1.75579e-10 1.00466e-09 -7.73091 5.47488 -0.417314 -6.17283e-10 -1.75579e-10 1.00465e-09 -2.90554 0.965183 -0.102902 -6.17286e-10 -1.75577e-10 1.00465e-09 -10.2786 0.731801 -0.0259123 -6.17282e-10 -1.75576e-10 1.00464e-09 -2.22167 -0.733487 0.20892 -2.03217e-16 0.0 -3.88251e-19 5.41561 -7.09015 27.6946 0.0361274 -1.16568 0.367312 -5.26591 -5.1189 -25.8149 2.03217e-16 0.0 3.88251e-19 0.457199 -5.76998 -50.3833 0.0638559 12.3956 0.401866 26.0026 -17.4322 64.8432
